<svg width="24" height="24" viewBox="0 0 24 24" fill="none" xmlns="http://www.w3.org/2000/svg">
<path d="M6.18173 12.2128C6.18173 11.5642 6.28946 10.9423 6.48173 10.359L3.11627 7.78906C2.46037 9.12081 2.09082 10.6214 2.09082 12.2128C2.09082 13.8028 2.45991 15.3025 3.11491 16.6333L6.47855 14.0583C6.28809 13.4778 6.18173 12.8582 6.18173 12.2128Z" fill="#FBBC05"/>
<path d="M12.091 6.31216C13.5001 6.31216 14.7728 6.81145 15.7728 7.62847L18.6819 4.7235C16.9092 3.18024 14.6365 2.22705 12.091 2.22705C8.13918 2.22705 4.74282 4.48702 3.11646 7.78915L6.48191 10.3591C7.25736 8.00521 9.46782 6.31216 12.091 6.31216Z" fill="#EB4335"/>
<path d="M12.091 18.1134C9.46782 18.1134 7.25736 16.4203 6.48191 14.0664L3.11646 16.6359C4.74282 19.9385 8.13918 22.1985 12.091 22.1985C14.5301 22.1985 16.8587 21.3324 18.6065 19.7098L15.4119 17.2401C14.5105 17.8079 13.3755 18.1134 12.091 18.1134Z" fill="#34A853"/>
<path d="M21.6363 12.2126C21.6363 11.6225 21.5454 10.987 21.409 10.397H12.0908V14.2551H17.4545C17.1863 15.5705 16.4563 16.5818 15.4117 17.24L18.6063 19.7097C20.4422 18.0057 21.6363 15.4675 21.6363 12.2126Z" fill="#4285F4"/>
</svg>
